# xmcd CD database file
#
# Track frame offsets:
#	150
#	34969
#	44127
#	61826
#	84423
#	94602
#
# Disc length: 2242 seconds
#
# Revision: 0
# Processed by: cddbd v1.5.1PL2 Copyright (c) Steve Scherf et al.
# Submitted via: CDex 1.51
#
DISCID=4808c006
DTITLE=François Rossé - Ouroboros
DYEAR=2001
DGENRE=Jazz
TTITLE0=Ombritude
TTITLE1=Altorch'
TTITLE2=Shrax'lauf
TTITLE3=chose mise à Bart...
TTITLE4=lou
TTITLE5=Seven shoes for reptily eight
EXTD=YEAR: 2001
EXTT0=
EXTT1=
EXTT2=
EXTT3=
EXTT4=
EXTT5=
PLAYORDER=
